<mxfile host="Electron" modified="2023-11-16T10:54:09.049Z" agent="Mozilla/5.0 (Windows NT 10.0; Win64; x64) AppleWebKit/537.36 (KHTML, like Gecko) draw.io/22.0.2 Chrome/114.0.5735.289 Electron/25.8.4 Safari/537.36" etag="jbLlJRpPidzbyX5_ZJUn" version="22.0.2" type="device">
  <diagram name="Página-1" id="JHllxro1XshKcGhUFyaS">
    <mxGraphModel dx="1654" dy="820" grid="1" gridSize="10" guides="1" tooltips="1" connect="1" arrows="1" fold="1" page="1" pageScale="1" pageWidth="827" pageHeight="1169" math="0" shadow="0">
      <root>
        <mxCell id="0" />
        <mxCell id="1" parent="0" />
        <mxCell id="-b-qji9FXNFANJbtP93Z-3" value="" style="edgeStyle=orthogonalEdgeStyle;rounded=0;orthogonalLoop=1;jettySize=auto;html=1;" parent="1" source="-b-qji9FXNFANJbtP93Z-1" target="-b-qji9FXNFANJbtP93Z-2" edge="1">
          <mxGeometry relative="1" as="geometry" />
        </mxCell>
        <mxCell id="-b-qji9FXNFANJbtP93Z-24" value="" style="edgeStyle=orthogonalEdgeStyle;rounded=0;orthogonalLoop=1;jettySize=auto;html=1;" parent="1" source="-b-qji9FXNFANJbtP93Z-1" target="-b-qji9FXNFANJbtP93Z-23" edge="1">
          <mxGeometry relative="1" as="geometry" />
        </mxCell>
        <mxCell id="xlJ0g7p7YOJdf5KPWCei-3" style="edgeStyle=orthogonalEdgeStyle;rounded=0;orthogonalLoop=1;jettySize=auto;html=1;exitX=0;exitY=0.5;exitDx=0;exitDy=0;entryX=0.5;entryY=0;entryDx=0;entryDy=0;" edge="1" parent="1" source="-b-qji9FXNFANJbtP93Z-1" target="xlJ0g7p7YOJdf5KPWCei-2">
          <mxGeometry relative="1" as="geometry" />
        </mxCell>
        <mxCell id="-b-qji9FXNFANJbtP93Z-1" value="EMPRESA" style="rounded=0;whiteSpace=wrap;html=1;" parent="1" vertex="1">
          <mxGeometry x="100" y="80" width="120" height="60" as="geometry" />
        </mxCell>
        <mxCell id="-b-qji9FXNFANJbtP93Z-2" value="tiene" style="rhombus;whiteSpace=wrap;html=1;" parent="1" vertex="1">
          <mxGeometry x="107" y="180" width="106" height="50" as="geometry" />
        </mxCell>
        <mxCell id="-b-qji9FXNFANJbtP93Z-5" value="" style="edgeStyle=orthogonalEdgeStyle;rounded=0;orthogonalLoop=1;jettySize=auto;html=1;" parent="1" source="-b-qji9FXNFANJbtP93Z-4" target="-b-qji9FXNFANJbtP93Z-2" edge="1">
          <mxGeometry relative="1" as="geometry" />
        </mxCell>
        <mxCell id="-b-qji9FXNFANJbtP93Z-9" style="edgeStyle=orthogonalEdgeStyle;rounded=0;orthogonalLoop=1;jettySize=auto;html=1;exitX=1;exitY=0;exitDx=0;exitDy=0;entryX=0;entryY=0.5;entryDx=0;entryDy=0;" parent="1" source="-b-qji9FXNFANJbtP93Z-4" target="-b-qji9FXNFANJbtP93Z-8" edge="1">
          <mxGeometry relative="1" as="geometry" />
        </mxCell>
        <mxCell id="-b-qji9FXNFANJbtP93Z-4" value="PLANTA" style="rounded=0;whiteSpace=wrap;html=1;" parent="1" vertex="1">
          <mxGeometry x="93" y="270" width="120" height="60" as="geometry" />
        </mxCell>
        <mxCell id="-b-qji9FXNFANJbtP93Z-6" value="&lt;u&gt;Id.Empresa&lt;/u&gt;" style="ellipse;whiteSpace=wrap;html=1;" parent="1" vertex="1">
          <mxGeometry x="30" y="10" width="110" height="40" as="geometry" />
        </mxCell>
        <mxCell id="-b-qji9FXNFANJbtP93Z-7" style="edgeStyle=orthogonalEdgeStyle;rounded=0;orthogonalLoop=1;jettySize=auto;html=1;exitX=0.25;exitY=0;exitDx=0;exitDy=0;entryX=0.982;entryY=0.3;entryDx=0;entryDy=0;entryPerimeter=0;" parent="1" source="-b-qji9FXNFANJbtP93Z-1" target="-b-qji9FXNFANJbtP93Z-6" edge="1">
          <mxGeometry relative="1" as="geometry" />
        </mxCell>
        <mxCell id="-b-qji9FXNFANJbtP93Z-8" value="&lt;u&gt;Id. Planta&lt;/u&gt;" style="ellipse;whiteSpace=wrap;html=1;" parent="1" vertex="1">
          <mxGeometry x="220" y="220" width="110" height="40" as="geometry" />
        </mxCell>
        <mxCell id="-b-qji9FXNFANJbtP93Z-11" value="" style="edgeStyle=orthogonalEdgeStyle;rounded=0;orthogonalLoop=1;jettySize=auto;html=1;" parent="1" source="-b-qji9FXNFANJbtP93Z-10" target="-b-qji9FXNFANJbtP93Z-4" edge="1">
          <mxGeometry relative="1" as="geometry" />
        </mxCell>
        <mxCell id="-b-qji9FXNFANJbtP93Z-13" value="" style="edgeStyle=orthogonalEdgeStyle;rounded=0;orthogonalLoop=1;jettySize=auto;html=1;" parent="1" source="-b-qji9FXNFANJbtP93Z-10" target="-b-qji9FXNFANJbtP93Z-12" edge="1">
          <mxGeometry relative="1" as="geometry" />
        </mxCell>
        <mxCell id="-b-qji9FXNFANJbtP93Z-10" value="está" style="rhombus;whiteSpace=wrap;html=1;" parent="1" vertex="1">
          <mxGeometry x="107" y="370" width="90" height="50" as="geometry" />
        </mxCell>
        <mxCell id="-b-qji9FXNFANJbtP93Z-15" value="" style="edgeStyle=orthogonalEdgeStyle;rounded=0;orthogonalLoop=1;jettySize=auto;html=1;" parent="1" source="-b-qji9FXNFANJbtP93Z-12" target="-b-qji9FXNFANJbtP93Z-14" edge="1">
          <mxGeometry relative="1" as="geometry" />
        </mxCell>
        <mxCell id="-b-qji9FXNFANJbtP93Z-12" value="ALMACEN" style="whiteSpace=wrap;html=1;" parent="1" vertex="1">
          <mxGeometry x="93" y="455" width="120" height="60" as="geometry" />
        </mxCell>
        <mxCell id="-b-qji9FXNFANJbtP93Z-14" value="&lt;u&gt;Id.Almacen&lt;/u&gt;" style="ellipse;whiteSpace=wrap;html=1;" parent="1" vertex="1">
          <mxGeometry x="250" y="462.5" width="90" height="45" as="geometry" />
        </mxCell>
        <mxCell id="-b-qji9FXNFANJbtP93Z-26" value="" style="edgeStyle=orthogonalEdgeStyle;rounded=0;orthogonalLoop=1;jettySize=auto;html=1;" parent="1" source="-b-qji9FXNFANJbtP93Z-23" target="-b-qji9FXNFANJbtP93Z-25" edge="1">
          <mxGeometry relative="1" as="geometry" />
        </mxCell>
        <mxCell id="-b-qji9FXNFANJbtP93Z-23" value="tiene" style="rhombus;whiteSpace=wrap;html=1;rounded=0;" parent="1" vertex="1">
          <mxGeometry x="260" y="80" width="106" height="60" as="geometry" />
        </mxCell>
        <mxCell id="-b-qji9FXNFANJbtP93Z-28" value="" style="edgeStyle=orthogonalEdgeStyle;rounded=0;orthogonalLoop=1;jettySize=auto;html=1;" parent="1" source="-b-qji9FXNFANJbtP93Z-25" target="-b-qji9FXNFANJbtP93Z-27" edge="1">
          <mxGeometry relative="1" as="geometry" />
        </mxCell>
        <mxCell id="-b-qji9FXNFANJbtP93Z-31" value="" style="edgeStyle=orthogonalEdgeStyle;rounded=0;orthogonalLoop=1;jettySize=auto;html=1;" parent="1" source="-b-qji9FXNFANJbtP93Z-25" target="-b-qji9FXNFANJbtP93Z-30" edge="1">
          <mxGeometry relative="1" as="geometry" />
        </mxCell>
        <mxCell id="-b-qji9FXNFANJbtP93Z-25" value="ORG. COMPRA" style="whiteSpace=wrap;html=1;rounded=0;" parent="1" vertex="1">
          <mxGeometry x="414" y="80" width="120" height="60" as="geometry" />
        </mxCell>
        <mxCell id="-b-qji9FXNFANJbtP93Z-27" value="tiene" style="rhombus;whiteSpace=wrap;html=1;rounded=0;" parent="1" vertex="1">
          <mxGeometry x="366" y="240" width="83" height="40" as="geometry" />
        </mxCell>
        <mxCell id="-b-qji9FXNFANJbtP93Z-30" value="&lt;u&gt;Id. Oc&lt;/u&gt;" style="ellipse;whiteSpace=wrap;html=1;rounded=0;" parent="1" vertex="1">
          <mxGeometry x="510" y="30" width="97" height="40" as="geometry" />
        </mxCell>
        <mxCell id="xlJ0g7p7YOJdf5KPWCei-14" style="edgeStyle=orthogonalEdgeStyle;rounded=0;orthogonalLoop=1;jettySize=auto;html=1;exitX=0.25;exitY=1;exitDx=0;exitDy=0;entryX=0;entryY=0.5;entryDx=0;entryDy=0;" edge="1" parent="1" source="xlJ0g7p7YOJdf5KPWCei-1" target="xlJ0g7p7YOJdf5KPWCei-13">
          <mxGeometry relative="1" as="geometry" />
        </mxCell>
        <mxCell id="xlJ0g7p7YOJdf5KPWCei-23" style="edgeStyle=orthogonalEdgeStyle;rounded=0;orthogonalLoop=1;jettySize=auto;html=1;exitX=0;exitY=0.5;exitDx=0;exitDy=0;entryX=0.5;entryY=0;entryDx=0;entryDy=0;" edge="1" parent="1" source="xlJ0g7p7YOJdf5KPWCei-1" target="xlJ0g7p7YOJdf5KPWCei-16">
          <mxGeometry relative="1" as="geometry" />
        </mxCell>
        <mxCell id="xlJ0g7p7YOJdf5KPWCei-1" value="ORGANIZACION VENTA" style="rounded=0;whiteSpace=wrap;html=1;" vertex="1" parent="1">
          <mxGeometry x="-160" y="330" width="120" height="60" as="geometry" />
        </mxCell>
        <mxCell id="xlJ0g7p7YOJdf5KPWCei-4" style="edgeStyle=orthogonalEdgeStyle;rounded=0;orthogonalLoop=1;jettySize=auto;html=1;exitX=0.5;exitY=1;exitDx=0;exitDy=0;entryX=0.5;entryY=0;entryDx=0;entryDy=0;" edge="1" parent="1" source="xlJ0g7p7YOJdf5KPWCei-2" target="xlJ0g7p7YOJdf5KPWCei-1">
          <mxGeometry relative="1" as="geometry" />
        </mxCell>
        <mxCell id="xlJ0g7p7YOJdf5KPWCei-2" value="pertenece" style="rhombus;whiteSpace=wrap;html=1;" vertex="1" parent="1">
          <mxGeometry x="-50" y="200" width="80" height="50" as="geometry" />
        </mxCell>
        <mxCell id="xlJ0g7p7YOJdf5KPWCei-9" style="edgeStyle=orthogonalEdgeStyle;rounded=0;orthogonalLoop=1;jettySize=auto;html=1;exitX=0;exitY=0.5;exitDx=0;exitDy=0;entryX=0.5;entryY=0;entryDx=0;entryDy=0;" edge="1" parent="1" source="xlJ0g7p7YOJdf5KPWCei-5" target="xlJ0g7p7YOJdf5KPWCei-8">
          <mxGeometry relative="1" as="geometry" />
        </mxCell>
        <mxCell id="xlJ0g7p7YOJdf5KPWCei-20" style="edgeStyle=orthogonalEdgeStyle;rounded=0;orthogonalLoop=1;jettySize=auto;html=1;exitX=0.5;exitY=1;exitDx=0;exitDy=0;entryX=0.5;entryY=0;entryDx=0;entryDy=0;" edge="1" parent="1" source="xlJ0g7p7YOJdf5KPWCei-5" target="xlJ0g7p7YOJdf5KPWCei-19">
          <mxGeometry relative="1" as="geometry" />
        </mxCell>
        <mxCell id="xlJ0g7p7YOJdf5KPWCei-5" value="canal (DISTINTO)" style="rounded=0;whiteSpace=wrap;html=1;" vertex="1" parent="1">
          <mxGeometry x="-240" y="90" width="120" height="60" as="geometry" />
        </mxCell>
        <mxCell id="xlJ0g7p7YOJdf5KPWCei-12" style="edgeStyle=orthogonalEdgeStyle;rounded=0;orthogonalLoop=1;jettySize=auto;html=1;exitX=0;exitY=0.5;exitDx=0;exitDy=0;entryX=0.5;entryY=0;entryDx=0;entryDy=0;" edge="1" parent="1" source="xlJ0g7p7YOJdf5KPWCei-7" target="xlJ0g7p7YOJdf5KPWCei-11">
          <mxGeometry relative="1" as="geometry" />
        </mxCell>
        <mxCell id="xlJ0g7p7YOJdf5KPWCei-7" value="DIVISION" style="rounded=0;whiteSpace=wrap;html=1;" vertex="1" parent="1">
          <mxGeometry x="-370" y="328" width="120" height="60" as="geometry" />
        </mxCell>
        <mxCell id="xlJ0g7p7YOJdf5KPWCei-10" style="edgeStyle=orthogonalEdgeStyle;rounded=0;orthogonalLoop=1;jettySize=auto;html=1;exitX=0.5;exitY=1;exitDx=0;exitDy=0;entryX=0.5;entryY=0;entryDx=0;entryDy=0;" edge="1" parent="1" source="xlJ0g7p7YOJdf5KPWCei-8" target="xlJ0g7p7YOJdf5KPWCei-7">
          <mxGeometry relative="1" as="geometry" />
        </mxCell>
        <mxCell id="xlJ0g7p7YOJdf5KPWCei-8" value="tiene" style="rhombus;whiteSpace=wrap;html=1;" vertex="1" parent="1">
          <mxGeometry x="-330" y="203" width="80" height="80" as="geometry" />
        </mxCell>
        <mxCell id="xlJ0g7p7YOJdf5KPWCei-11" value="&lt;u&gt;ID. division&lt;/u&gt;" style="ellipse;whiteSpace=wrap;html=1;" vertex="1" parent="1">
          <mxGeometry x="-405" y="395" width="120" height="35" as="geometry" />
        </mxCell>
        <mxCell id="xlJ0g7p7YOJdf5KPWCei-15" style="edgeStyle=orthogonalEdgeStyle;rounded=0;orthogonalLoop=1;jettySize=auto;html=1;exitX=1;exitY=0.5;exitDx=0;exitDy=0;entryX=0;entryY=0.5;entryDx=0;entryDy=0;" edge="1" parent="1" source="xlJ0g7p7YOJdf5KPWCei-13" target="-b-qji9FXNFANJbtP93Z-4">
          <mxGeometry relative="1" as="geometry" />
        </mxCell>
        <mxCell id="xlJ0g7p7YOJdf5KPWCei-13" value="asigna" style="rhombus;whiteSpace=wrap;html=1;" vertex="1" parent="1">
          <mxGeometry x="-70" y="410" width="80" height="80" as="geometry" />
        </mxCell>
        <mxCell id="xlJ0g7p7YOJdf5KPWCei-16" value="&lt;u&gt;id. Org, venta&lt;/u&gt;" style="ellipse;whiteSpace=wrap;html=1;" vertex="1" parent="1">
          <mxGeometry x="-250" y="390" width="100" height="40" as="geometry" />
        </mxCell>
        <mxCell id="xlJ0g7p7YOJdf5KPWCei-18" style="edgeStyle=orthogonalEdgeStyle;rounded=0;orthogonalLoop=1;jettySize=auto;html=1;exitX=0.5;exitY=1;exitDx=0;exitDy=0;entryX=0.983;entryY=0.617;entryDx=0;entryDy=0;entryPerimeter=0;" edge="1" parent="1" source="-b-qji9FXNFANJbtP93Z-27" target="-b-qji9FXNFANJbtP93Z-4">
          <mxGeometry relative="1" as="geometry" />
        </mxCell>
        <mxCell id="xlJ0g7p7YOJdf5KPWCei-21" style="edgeStyle=orthogonalEdgeStyle;rounded=0;orthogonalLoop=1;jettySize=auto;html=1;exitX=0.5;exitY=1;exitDx=0;exitDy=0;entryX=0.25;entryY=0;entryDx=0;entryDy=0;" edge="1" parent="1" source="xlJ0g7p7YOJdf5KPWCei-19" target="xlJ0g7p7YOJdf5KPWCei-1">
          <mxGeometry relative="1" as="geometry" />
        </mxCell>
        <mxCell id="xlJ0g7p7YOJdf5KPWCei-19" value="tiene" style="rhombus;whiteSpace=wrap;html=1;" vertex="1" parent="1">
          <mxGeometry x="-210" y="200" width="80" height="80" as="geometry" />
        </mxCell>
        <mxCell id="xlJ0g7p7YOJdf5KPWCei-24" style="edgeStyle=orthogonalEdgeStyle;rounded=0;orthogonalLoop=1;jettySize=auto;html=1;exitX=0;exitY=0.5;exitDx=0;exitDy=0;entryX=0.5;entryY=0;entryDx=0;entryDy=0;" edge="1" parent="1" source="xlJ0g7p7YOJdf5KPWCei-22" target="xlJ0g7p7YOJdf5KPWCei-5">
          <mxGeometry relative="1" as="geometry" />
        </mxCell>
        <mxCell id="xlJ0g7p7YOJdf5KPWCei-22" value="id. cd" style="ellipse;whiteSpace=wrap;html=1;" vertex="1" parent="1">
          <mxGeometry x="-160" y="40" width="120" height="40" as="geometry" />
        </mxCell>
        <mxCell id="xlJ0g7p7YOJdf5KPWCei-25" value="(1,1)" style="text;html=1;align=center;verticalAlign=middle;resizable=0;points=[];autosize=1;strokeColor=none;fillColor=none;" vertex="1" parent="1">
          <mxGeometry x="145" y="328" width="50" height="30" as="geometry" />
        </mxCell>
        <mxCell id="xlJ0g7p7YOJdf5KPWCei-26" value="(1,n)" style="text;html=1;align=center;verticalAlign=middle;resizable=0;points=[];autosize=1;strokeColor=none;fillColor=none;" vertex="1" parent="1">
          <mxGeometry x="145" y="428" width="50" height="30" as="geometry" />
        </mxCell>
        <mxCell id="xlJ0g7p7YOJdf5KPWCei-27" value="1:N" style="text;html=1;align=center;verticalAlign=middle;resizable=0;points=[];autosize=1;strokeColor=none;fillColor=none;" vertex="1" parent="1">
          <mxGeometry x="190" y="378" width="40" height="30" as="geometry" />
        </mxCell>
        <mxCell id="xlJ0g7p7YOJdf5KPWCei-28" value="N:M" style="text;html=1;align=center;verticalAlign=middle;resizable=0;points=[];autosize=1;strokeColor=none;fillColor=none;" vertex="1" parent="1">
          <mxGeometry x="-55" y="485" width="50" height="30" as="geometry" />
        </mxCell>
        <mxCell id="xlJ0g7p7YOJdf5KPWCei-29" value="(1,n)" style="text;html=1;align=center;verticalAlign=middle;resizable=0;points=[];autosize=1;strokeColor=none;fillColor=none;" vertex="1" parent="1">
          <mxGeometry x="-145" y="388" width="50" height="30" as="geometry" />
        </mxCell>
        <mxCell id="xlJ0g7p7YOJdf5KPWCei-30" value="(1,n)" style="text;html=1;align=center;verticalAlign=middle;resizable=0;points=[];autosize=1;strokeColor=none;fillColor=none;" vertex="1" parent="1">
          <mxGeometry x="55" y="298" width="50" height="30" as="geometry" />
        </mxCell>
        <mxCell id="xlJ0g7p7YOJdf5KPWCei-31" value="(1,1)" style="text;html=1;align=center;verticalAlign=middle;resizable=0;points=[];autosize=1;strokeColor=none;fillColor=none;" vertex="1" parent="1">
          <mxGeometry x="-285" y="98" width="50" height="30" as="geometry" />
        </mxCell>
        <mxCell id="xlJ0g7p7YOJdf5KPWCei-32" value="(1,n)" style="text;html=1;align=center;verticalAlign=middle;resizable=0;points=[];autosize=1;strokeColor=none;fillColor=none;" vertex="1" parent="1">
          <mxGeometry x="-415" y="258" width="50" height="30" as="geometry" />
        </mxCell>
        <mxCell id="xlJ0g7p7YOJdf5KPWCei-33" value="1:N" style="text;html=1;align=center;verticalAlign=middle;resizable=0;points=[];autosize=1;strokeColor=none;fillColor=none;" vertex="1" parent="1">
          <mxGeometry x="-365" y="225" width="40" height="30" as="geometry" />
        </mxCell>
        <mxCell id="xlJ0g7p7YOJdf5KPWCei-34" value="1:N" style="text;html=1;align=center;verticalAlign=middle;resizable=0;points=[];autosize=1;strokeColor=none;fillColor=none;" vertex="1" parent="1">
          <mxGeometry x="-240" y="228" width="40" height="30" as="geometry" />
        </mxCell>
        <mxCell id="xlJ0g7p7YOJdf5KPWCei-35" value="(1,n)" style="text;html=1;align=center;verticalAlign=middle;resizable=0;points=[];autosize=1;strokeColor=none;fillColor=none;" vertex="1" parent="1">
          <mxGeometry x="-185" y="138" width="50" height="30" as="geometry" />
        </mxCell>
        <mxCell id="xlJ0g7p7YOJdf5KPWCei-36" value="(1,1)" style="text;html=1;align=center;verticalAlign=middle;resizable=0;points=[];autosize=1;strokeColor=none;fillColor=none;" vertex="1" parent="1">
          <mxGeometry x="-175" y="308" width="50" height="30" as="geometry" />
        </mxCell>
        <mxCell id="xlJ0g7p7YOJdf5KPWCei-37" value="(1,n)" style="text;html=1;align=center;verticalAlign=middle;resizable=0;points=[];autosize=1;strokeColor=none;fillColor=none;" vertex="1" parent="1">
          <mxGeometry x="-95" y="308" width="50" height="30" as="geometry" />
        </mxCell>
        <mxCell id="xlJ0g7p7YOJdf5KPWCei-38" value="(1,1)" style="text;html=1;align=center;verticalAlign=middle;resizable=0;points=[];autosize=1;strokeColor=none;fillColor=none;" vertex="1" parent="1">
          <mxGeometry x="65" y="88" width="50" height="30" as="geometry" />
        </mxCell>
        <mxCell id="xlJ0g7p7YOJdf5KPWCei-40" value="1:N" style="text;html=1;align=center;verticalAlign=middle;resizable=0;points=[];autosize=1;strokeColor=none;fillColor=none;" vertex="1" parent="1">
          <mxGeometry x="-90" y="210" width="40" height="30" as="geometry" />
        </mxCell>
        <mxCell id="xlJ0g7p7YOJdf5KPWCei-41" value="1:N" style="text;html=1;align=center;verticalAlign=middle;resizable=0;points=[];autosize=1;strokeColor=none;fillColor=none;" vertex="1" parent="1">
          <mxGeometry x="70" y="188" width="40" height="30" as="geometry" />
        </mxCell>
        <mxCell id="xlJ0g7p7YOJdf5KPWCei-42" value="(1,1)" style="text;html=1;align=center;verticalAlign=middle;resizable=0;points=[];autosize=1;strokeColor=none;fillColor=none;" vertex="1" parent="1">
          <mxGeometry x="145" y="138" width="50" height="30" as="geometry" />
        </mxCell>
        <mxCell id="xlJ0g7p7YOJdf5KPWCei-43" value="(1,n)" style="text;html=1;align=center;verticalAlign=middle;resizable=0;points=[];autosize=1;strokeColor=none;fillColor=none;" vertex="1" parent="1">
          <mxGeometry x="145" y="248" width="50" height="30" as="geometry" />
        </mxCell>
        <mxCell id="xlJ0g7p7YOJdf5KPWCei-44" value="(1,n)" style="text;html=1;align=center;verticalAlign=middle;resizable=0;points=[];autosize=1;strokeColor=none;fillColor=none;" vertex="1" parent="1">
          <mxGeometry x="460" y="138" width="50" height="30" as="geometry" />
        </mxCell>
        <mxCell id="xlJ0g7p7YOJdf5KPWCei-45" value="N:M" style="text;html=1;align=center;verticalAlign=middle;resizable=0;points=[];autosize=1;strokeColor=none;fillColor=none;" vertex="1" parent="1">
          <mxGeometry x="435" y="248" width="50" height="30" as="geometry" />
        </mxCell>
        <mxCell id="xlJ0g7p7YOJdf5KPWCei-46" value="(1,n)" style="text;html=1;align=center;verticalAlign=middle;resizable=0;points=[];autosize=1;strokeColor=none;fillColor=none;" vertex="1" parent="1">
          <mxGeometry x="215" y="298" width="50" height="30" as="geometry" />
        </mxCell>
      </root>
    </mxGraphModel>
  </diagram>
</mxfile>
